<svg xmlns="http://www.w3.org/2000/svg" width="52.188" height="47"><path data-name="Icon - Heart" d="M50.829 9.057A14.809 14.809 0 0 0 37.541.004 13.986 13.986 0 0 0 26.079 5.23 13.982 13.982 0 0 0 14.618.004 14.808 14.808 0 0 0 1.33 9.057c-2.539 5.685-1.42 12.015 3 16.931 10.687 11.907 20.131 20.347 20.225 20.431a2.3 2.3 0 0 0 3.059 0c.094-.084 9.538-8.524 20.225-20.431 4.41-4.916 5.529-11.246 2.99-16.931zm-6.416 13.864c-8 8.907-15.272 15.832-18.334 18.67-3.062-2.838-10.337-9.763-18.333-18.67C4.532 19.34 3.723 14.97 5.528 10.93a10.347 10.347 0 0 1 9.09-6.333c7.407 0 9.068 5.5 9.229 6.111a2.3 2.3 0 0 0 4.465 0c.061-.25 1.584-6.111 9.229-6.111a10.348 10.348 0 0 1 9.09 6.333c1.805 4.04.996 8.41-2.218 11.991zm-6.9-15.82a2.3 2.3 0 1 0-.62 4.551c.12.016 2.949.447 3.218 4.489a2.3 2.3 0 0 0 2.295 2.14h.155a2.3 2.3 0 0 0 2.141-2.445c-.408-6.192-4.88-8.422-7.185-8.735zm2.112 12.18a2.333 2.333 0 0 0-1.626.672 2.3 2.3 0 0 0 0 3.249 2.3 2.3 0 1 0 1.626-3.921z" fill-rule="evenodd"/></svg>