<svg xmlns="http://www.w3.org/2000/svg" width="36.025" height="46.68" viewBox="0 0 39.094 50.656"><path data-name="Icon - Mobile" d="M34.78.01H4.299a3.944 3.944 0 0 0-4.3 4.112v42.437a3.944 3.944 0 0 0 4.3 4.112H34.78a3.944 3.944 0 0 0 4.3-4.112V4.122A3.944 3.944 0 0 0 34.78.01zm1.015 46.549c0 .46 0 .822-1.015.822H4.299c-1.016 0-1.016-.362-1.016-.822V4.122c0-.459 0-.822 1.016-.822H34.78c1.015 0 1.015.363 1.015.822v42.437zM32.588 5.945h-26.1a1.1 1.1 0 0 0-1.1 1.1v33.121a1.1 1.1 0 0 0 1.1 1.1h26.1a1.1 1.1 0 0 0 1.1-1.1V7.041a1.1 1.1 0 0 0-1.1-1.096zm-1.095 33.121H7.586V8.138h23.907v30.928zm-13.31 3.958a1.919 1.919 0 1 0 2.71 0 1.986 1.986 0 0 0-2.71 0z" fill-rule="evenodd"/></svg>